<?xml version="1.0" standalone="no"?>
<!DOCTYPE svg PUBLIC "-//W3C//DTD SVG 20010904//EN" "http://www.w3.org/TR/2001/REC-SVG-20010904/DTD/svg10.dtd">
<svg version="1.0" xmlns="http://www.w3.org/2000/svg" width="500.000000pt" height="500.000000pt" viewBox="0 0 500.000000 500.000000" preserveAspectRatio="xMidYMid meet">
  <metadata>
    Created by potrace 1.16, written by Peter Selinger 2001-2019
  </metadata>
  <g transform="translate(0.000000,500.000000) scale(0.100000,-0.100000)" fill="#000000" stroke="none">
    <path d="M500 2500 l0 -2000 2000 0 2000 0 0 2000 0 2000 -2000 0 -2000 0 0 -2000z m3940 0 l0 -1940 -1940 0 -1940 0 0 1940 0 1940 1940 0 1940 0 0 -1940z" />
    <path d="M1789 4111 c-55 -11 -102 -43 -126 -87 -42 -73 -25 -193 34 -246 71 -65 210 -62 281 5 56 52 70 170 29 242 -37 66 -130 102 -218 86z" />
    <path d="M2676 3564 c-131 -32 -262 -138 -326 -264 -64 -128 -75 -191 -75 -445 0 -253 7 -299 65 -424 64 -136 156 -224 284 -270 95 -33 269 -41 366 -16 147 38 262 131 330 267 63 126 75 199 75 448 0 195 -2 222 -23 295 -68 233 -209 378 -407 414 -79 15 -217 12 -289 -5z m252 -312 c42 -31 89 -131 102 -217 13 -93 13 -265 -1 -362 -22 -164 -87 -243 -199 -243 -83 0 -137 52 -172 163 -21 65 -23 92 -23 267 1 176 3 201 24 259 25 72 61 125 100 147 38 21 129 14 169 -14z" />
    <path d="M1650 2855 l0 -705 185 0 185 0 0 705 0 705 -185 0 -185 0 0 -705z" />
    <path d="M1908 1574 c-5 -4 -8 -131 -8 -282 l0 -274 108 4 c138 5 183 26 225 107 25 50 27 64 27 168 0 125 -11 167 -58 216 -46 48 -79 60 -187 65 -55 2 -103 1 -107 -4z m209 -110 c29 -18 36 -59 31 -193 -4 -132 -16 -154 -90 -155 l-43 -1 -3 175 c-1 96 0 181 3 188 6 17 67 9 102 -14z" />
    <path d="M2350 1300 l0 -280 160 0 160 0 0 45 0 45 -105 0 -105 0 0 75 0 75 85 0 85 0 0 45 0 45 -85 0 -85 0 0 70 0 70 106 0 105 0 -3 43 -3 42 -157 3 -158 3 0 -281z" />
    <path d="M2700 1573 c0 -5 36 -129 78 -278 l78 -270 58 0 58 0 79 270 c43 149 78 273 79 278 0 4 -27 7 -59 7 -48 0 -61 -3 -65 -17 -2 -10 -23 -99 -46 -198 -23 -99 -43 -182 -45 -184 -2 -2 -7 7 -10 20 -25 108 -85 370 -85 374 0 3 -27 5 -60 5 -33 0 -60 -3 -60 -7z" />
  </g>
</svg>