<?xml version="1.0" standalone="no"?>
<!DOCTYPE svg PUBLIC "-//W3C//DTD SVG 20010904//EN" "http://www.w3.org/TR/2001/REC-SVG-20010904/DTD/svg10.dtd">
<svg version="1.0" xmlns="http://www.w3.org/2000/svg" width="500.000000pt" height="500.000000pt" viewBox="0 0 500.000000 500.000000" preserveAspectRatio="xMidYMid meet">
  <metadata>
    Created by potrace 1.16, written by Peter Selinger 2001-2019
  </metadata>
  <g transform="translate(0.000000,500.000000) scale(0.100000,-0.100000)" fill="#000000" stroke="none">
    <path d="M0 2500 l0 -2500 2500 0 2500 0 0 2500 0 2500 -2500 0 -2500 0 0 -2500z m4500 0 l0 -2000 -2000 0 -2000 0 0 2000 0 2000 2000 0 2000 0 0 -2000z" />
    <path d="M560 2500 l0 -1940 1940 0 1940 0 0 1940 0 1940 -1940 0 -1940 0 0 -1940z m1358 1605 c78 -33 115 -90 116 -180 1 -75 -28 -130 -87 -168 -35 -23 -52 -27 -112 -27 -60 0 -77 4 -112 27 -59 38 -87 92 -86 168 0 65 16 106 55 142 55 51 153 68 226 38z m1027 -530 c113 -20 184 -55 266 -133 116 -108 173 -248 190 -465 12 -144 0 -330 -27 -432 -21 -82 -76 -190 -124 -247 -187 -217 -577 -236 -792 -39 -96 88 -158 219 -183 390 -28 186 -13 426 36 570 49 144 176 282 303 330 105 39 208 47 331 26z m-925 -720 l0 -705 -185 0 -185 0 0 705 0 705 185 0 185 0 0 -705z m151 -1310 c26 -18 53 -50 68 -80 23 -44 26 -61 26 -160 0 -121 -11 -167 -53 -217 -44 -52 -93 -68 -209 -68 l-103 0 0 281 0 281 114 -3 c108 -4 117 -6 157 -34z m499 -15 l0 -50 -105 0 -105 0 0 -65 0 -65 90 0 90 0 0 -45 0 -45 -90 0 -90 0 0 -70 0 -69 103 -3 102 -3 3 -47 3 -48 -160 0 -161 0 0 280 0 280 160 0 160 0 0 -50z m195 -135 c23 -99 44 -186 46 -194 3 -7 25 74 50 180 l44 194 63 3 c34 2 62 -1 62 -5 1 -4 -34 -131 -77 -280 l-78 -273 -61 0 -61 0 -77 268 c-42 147 -76 273 -76 280 0 10 17 12 62 10 l61 -3 42 -180z" />
    <path d="M2765 3261 c-93 -48 -125 -154 -125 -413 0 -256 30 -350 123 -397 117 -58 227 19 257 179 17 92 14 374 -5 457 -17 74 -55 140 -98 168 -40 26 -107 29 -152 6z" />
    <path d="M2020 1300 l0 -180 36 0 c76 0 94 34 94 181 0 142 -19 178 -92 179 l-38 0 0 -180z" />
  </g>
</svg>